<?xml version="1.0" encoding="utf-8"?>
<!-- Generator: Adobe Illustrator 25.4.1, SVG Export Plug-In . SVG Version: 6.00 Build 0)  -->
<svg version="1.1" id="Capa_1" xmlns="http://www.w3.org/2000/svg" xmlns:xlink="http://www.w3.org/1999/xlink" x="0px" y="0px"
	 viewBox="0 0 464.96 560" style="enable-background:new 0 0 464.96 560;" xml:space="preserve">
<style type="text/css">
	.st0{fill:#FFFFFF;stroke:#040506;stroke-miterlimit:10;}
	.st1{fill:none;stroke:#040506;stroke-miterlimit:10;}
</style>
<path class="st0" d="M198.98,438.19c2.72,1.01,4.71,2.15,6.04,3.02c2,1.3,4.74,3.45,4.74,3.45c0.48,0.4,3.1,2.64,2.59,4.74
	c-0.43,1.79-2.9,2.52-6.04,3.45c-2.61,0.78-4.8,1.06-7.33,1.29c-4.89,0.45-7.48,0.68-11.21,0.43c-2.28-0.15-3.49-0.28-4.12-0.39
	c-1.55-0.25-3.8-0.64-6.22-1.77c-2.27-1.06-5.5-2.56-5.6-4.74c-0.02-0.36,0.01-1.54,3.88-4.74c4.36-3.61,5.67-3.23,7.76-5.6
	c1.82-2.07,2.42-4.18,3.45-7.76c1.16-4.06,1.29-7.44,1.29-9.05c0.01-4.9-1.09-7.72-2.16-12.07c-1.56-6.4-1.35-9.25-2.16-15.95
	c-1.05-8.74-3.14-16.46-7.33-31.9c-3.98-14.68-5.97-22.02-9.49-30.18c-3.88-9.01-4.84-8.72-9.49-19.4
	c-3.93-9.04-7.04-16.17-9.05-26.3c-2.38-11.97-1.92-21.49-1.72-24.57c0.27-4.19,0.69-6.01,3.45-21.13
	c2.52-13.78,3.78-20.67,3.88-21.56c1.44-12.27-0.85-13.89-2.59-40.96c-0.76-11.85-1.14-17.77-0.86-26.3
	c0.34-10.27,1.21-12.07,1.29-23.71c0.04-6.32-0.18-9.6,0.43-15.95c0.14-1.47,0.96-5.86,2.59-14.66c0.65-3.49,1.25-6.59,3.45-9.92
	c1.16-1.76,2.64-3.92,5.17-4.31c2.77-0.43,4.97,1.54,5.17,1.72c1.51,1.39,1.6,2.83,2.59,6.9c0.46,1.92,1.31,4.73,3.02,10.35
	c1.14,3.77,1.75,5.46,2.59,7.33c1.28,2.85,1.94,4.3,3.45,5.6c2.46,2.12,5.37,2.47,6.47,2.59c1.76,0.19,3.05-0.05,5.17-0.43
	c2.2-0.4,3.74-0.93,6.04-1.72c3.64-1.27,5.46-1.9,6.9-3.02c0.86-0.67,0.79-0.79,3.88-4.31c1.97-2.24,2.95-3.36,3.88-4.31
	c3.22-3.29,6.26-5.34,7.33-6.04c3.53-2.29,3.51-1.47,7.33-3.88c4.18-2.64,4.79-3.99,7.33-4.31c0.39-0.05,3.75-0.43,6.04,1.72
	c0.84,0.79,1.61,1.99,2.16,6.47c0.75,6.13,0.16,10.9,0,12.07c-0.13,0.98-0.61,4.33-2.16,9.49c-1.13,3.79-2.03,5.86-5.17,13.37
	c-5.25,12.55-5.62,13.67-6.04,15.09c-1.3,4.49-1.84,8.05-2.59,12.93c-0.89,5.87-0.69,6.88-1.72,14.23
	c-0.95,6.76-1.45,10.18-2.59,12.5c-2.39,4.85-6.01,7.6-9.05,9.92c-4.83,3.67-9.24,5.3-12.5,6.47c-5.57,2-11.07,3.98-17.68,3.02
	c0,0-0.35-0.05-8.62-1.72c-0.03-1.42,0.16-3.71,1.72-5.17c1.45-1.35,3.27-1.24,6.47-1.29c4.18-0.07,8.33-0.61,12.5-0.86
	c6.67-0.4,5.76-0.78,9.49-0.86c5.9-0.13,11.78-0.26,17.25,3.02c2.95,1.77,4.7,3.91,8.19,8.19c3.62,4.44,3.56,5.66,6.9,9.49
	c0.85,0.98,2.65,2.95,8.62,7.76c5.2,4.18,8.27,6.26,12.07,9.05c8.28,6.09,14.21,11.33,15.52,12.5c6.91,6.15,11.17,9.95,15.52,16.38
	c2.69,3.98,4.44,7.53,6.47,11.64c1.33,2.69,3.83,7.81,6.04,14.23c1.93,5.61,2.87,10.02,4.31,17.68c2.07,11,3.64,20.52,5.6,33.2
	c1.91,12.32,2.87,18.48,3.45,23.28c1.02,8.42,1.03,10.62,2.16,17.25c1.21,7.17,1.79,8.11,3.45,17.25
	c1.96,10.82,1.3,10.29,2.59,15.52c1.96,7.94,3.52,13.97,8.62,19.4c3.74,3.99,7.85,6.02,9.92,6.9c4.69,1.99,8.7,2.21,15.52,2.59
	c1.8,0.1,4.38,0.19,11.21,0c5.76-0.16,10.96-0.29,17.68-0.86c11.77-1,17.66-1.49,21.56-3.45c6.51-3.27,10.08-8.75,12.93-12.93
	c1.23-1.8,4.28-6.52,6.47-13.37c2.05-6.42,3.65-11.43,2.16-17.68c-1.83-7.62-7.05-12.01-8.19-12.93
	c-2.47-1.99-10.27-8.28-18.11-4.74c-5.49,2.48-9.07,8.93-8.19,15.09c1.09,7.67,8.5,10.81,12.5,12.5c2.88,1.22,7.12,3.02,9.92,0.86
	c2.18-1.68,3.02-5.39,1.72-7.76c-1.7-3.13-6.78-3.31-13.37-3.45c-11.46-0.25-14.8,2.3-17.25,0c-3.38-3.18-1.32-12.16,3.02-17.68
	c6.68-8.5,18.03-7.86,19.4-7.76c9.54,0.69,15.45,7.05,18.11,9.92c2.01,2.17,6.44,6.93,7.76,14.23c1.06,5.86-0.87,11.38-4.74,22.42
	c-2.51,7.15-3.76,10.72-5.6,12.5c-1.46,1.41-5.1,4.33-25.44,5.17c-13.69,0.57-15.36-0.62-18.97,1.72
	c-5.73,3.72-4.46,8.59-12.07,14.66c-2.18,1.74-6.06,4.76-11.64,5.6c-4,0.61-7.89-0.59-15.52-3.02c-7.99-2.54-11.99-3.81-15.95-6.9
	c-4.57-3.55-7.93-8.21-8.72-9.32c-0.83-1.18-1.47-2.2-2.06-3.19c-5.15-8.6-6.02-13.7-9.92-20.69c-3.6-6.46-7.66-10.71-9.49-12.5
	c-2.44-2.4-6.02-5.86-11.64-8.62c-4.48-2.2-11.85-5.82-20.26-3.45c-1.56,0.44-8.91,2.51-12.07,9.05c-1.8,3.72-1.22,7.56,0,15.09
	c1.43,8.79,2.25,13.82,5.6,19.4c5.45,9.05,12.6,11.28,11.64,16.38c-0.34,1.81-1.7,3.93-3.45,4.31c-1.64,0.36-2.97-0.97-5.17-2.59
	c0,0-4.89-3.58-10.78-5.6c-3.28-1.13-6.91-2.37-10.78-0.86c-0.34,0.13-6.15,2.51-6.9,8.19c-0.32,2.42,0.23,5.84,2.59,7.76
	c1.95,1.59,3.79,1.05,9.49,1.29c6.82,0.29,6.28,1.15,12.07,1.29c4.3,0.11,4.74-0.37,12.5-0.86c2.4-0.15,5.77-0.25,12.5-0.43
	c10.64-0.29,15.96-0.44,16.81-0.43c9.51,0.08,11.33,0.78,13.8-0.86c3.9-2.59,4.77-7.93,5.17-12.5c1.42-16.01-2.21-29.56-6.47-46.13
	c-6.16-23.97-4.95-20.48-6.9-27.16c-2.92-10.03-6.77-23.07-13.8-39.23c-1.11-2.56-4.91-10.04-12.5-25.01
	c-6.91-13.62-9.65-18.71-15.95-22.85c-2.75-1.81-8.69-5.59-15.95-4.31c-5.49,0.97-9.06,4.35-10.35,5.6
	c-4.02,3.91-5.65,8.51-6.9,13.37c-2.57,9.95-2.46,16.66-3.02,30.61c-0.67,16.59-1.15,15.17-1.29,25.87
	c-0.09,6.47,0.08,7.42,0.43,25.01c0.25,12.48,0.37,18.71,0.43,27.16c0.2,29.13-0.76,28.36,0.43,31.9c0.51,1.52,1.9,5.27,0.43,9.05
	c-0.46,1.19-1.75,3.79-6.47,6.47c-6.91,3.92-13.93,3.89-15.95,3.88c-14.66-0.06-29.32,0.59-43.98,0.43
	c-14.63-0.15-12.18,0.36-18.54,0c-20.25-1.16-33.47-5.76-36.65-6.9c-8.23-2.96-13.71-4.93-19.83-9.92
	c-5.74-4.67-8.86-9.44-15.09-18.97c-7.03-10.75-9.97-18.17-10.78-20.26c-2.95-7.67-4.43-11.5-3.88-15.95
	c1.5-12.19,14.18-18.74,15.52-19.4c8.33-4.15,16.19-3.07,19.4-2.59c11.58,1.75,18.73,8.78,21.56,11.64
	c2.1,2.13,6.86,7.05,9.49,15.09c2,6.13,1.83,11.24,1.72,13.8c-0.29,6.94-2.23,11.98-3.45,15.09c-2.15,5.45-4.2,10.66-9.05,14.66
	c-2.91,2.4-5.55,3.31-14.66,5.6c-12.01,3.03-18.01,4.55-24.57,5.6c-4.47,0.72-14.45,2.18-27.16,2.59
	c-10.39,0.33-18.9-0.17-23.28-0.43c-2.47-0.15-4.54-0.31-6.04-0.43"/>
<g>
	<path class="st1" d="M95.49,393.74c10.03,11.56,16.58,27.6,12.33,42.91"/>
	<path class="st1" d="M58.18,377.4c8.82-1.38,18.04,0.72,25.56,5.86"/>
	<path class="st1" d="M89.41,397.87c8.6,11.61,13.58,26.74,9.97,41.1"/>
	<path class="st1" d="M56.99,380.71c7.69-0.92,15.61,1.4,21.79,6.03"/>
	<path class="st1" d="M92.08,395.48c9.71,11.54,15.65,27.5,10.63,42.37"/>
	<path class="st1" d="M57.25,379.36c8.32-0.8,16.86,1.3,23.8,5.96"/>
	<path class="st1" d="M105.59,380.93c3.21-0.45,6.46-0.58,9.7-0.36"/>
	<path class="st1" d="M65.09,414.64c6.42-13.63,16.55-26.27,31.16-31.44"/>
	<path class="st1" d="M103.64,376.37c2.6-0.27,5.21-0.32,7.82-0.15"/>
	<path class="st1" d="M62.27,409.72c6.48-13.8,16.84-26.48,31.77-31.33"/>
	<path class="st1" d="M106.69,383.32c3.37-0.54,6.8-0.7,10.2-0.46"/>
	<path class="st1" d="M67.09,418c6.14-13.54,15.69-26.46,29.95-32.06"/>
	<path class="st1" d="M105.34,378.63c2.89-0.29,5.8-0.31,8.69-0.05"/>
	<path class="st1" d="M63.42,412.57c6.6-13.71,16.8-26.63,31.66-31.7"/>
	<path class="st1" d="M90.87,364.71c11.27,11.67,18.49,28.15,14.3,44.03"/>
	<path class="st1" d="M97.78,366.69c10.06,13.58,15.6,31.94,9.84,48.61"/>
	<path class="st1" d="M86.44,364.07c10.72,9.79,18.24,24.22,15.74,38.93"/>
	<path class="st1" d="M81.75,364.07c11.53,8.32,16.99,21.39,17.64,34.95"/>
	<path class="st1" d="M68.32,420.49c6.13-13.14,15.63-25.65,29.52-31.11"/>
	<path class="st1" d="M70.19,423.16c5.99-12.81,15.16-25.01,28.51-30.69"/>
	<path class="st1" d="M107.86,386.52c3.62-0.92,7.31-1.21,10.96-0.8"/>
	<path class="st1" d="M108.55,389.31c3.73-0.86,7.52-1.12,11.28-0.74"/>
	<path class="st1" d="M108.59,423.05c2.84,0.8,5.62,1.82,8.31,3.05"/>
	<path class="st1" d="M71.22,425.09c7.14-5.15,16.37-6,24.87-4.89"/>
	<path class="st1" d="M108.14,419.67c3.46,1.04,6.84,2.34,10.06,3.97"/>
	<path class="st1" d="M68.71,422.23c7.88-4.68,17.23-6.3,26.29-5.35"/>
	<path class="st1" d="M109.01,427.03c1.98,0.6,3.93,1.3,5.83,2.1"/>
	<path class="st1" d="M72.9,427.63c7.14-3.95,15.61-4.64,23.58-3.52"/>
	<path class="st1" d="M86.51,399.94c8.12,11.44,12.82,26.34,9.42,40.49"/>
	<path class="st1" d="M55.65,383.01c7.53-0.87,15.28,1.32,21.33,5.7"/>
	<path class="st1" d="M66.32,376.98c0.86-0.82,2.09-1.92,3.67-3.03c3.5-2.48,6.52-3.54,8.4-4.19c2.02-0.69,4.75-1.42,8.05-1.73"/>
	<path class="st1" d="M69.15,377.44c0.82-0.65,2.01-1.53,3.51-2.42c3.35-1.98,6.24-2.82,8.04-3.34c1.93-0.55,4.55-1.13,7.7-1.38"/>
	<path class="st1" d="M63.4,376.82c5.6-5.75,13.15-9.37,21.05-10.62"/>
	<path class="st1" d="M60.87,376.98c0.9-1.01,2.2-2.37,3.88-3.79c3.75-3.15,7.08-4.65,9.17-5.56c2.24-0.98,5.28-2.08,9.01-2.76"/>
	<path class="st1" d="M73.31,378.17c0.75-0.53,1.82-1.23,3.19-1.93c3.03-1.56,5.61-2.18,7.22-2.55c1.73-0.4,4.06-0.8,6.85-0.9"/>
	<path class="st1" d="M76.93,379.34c0.66-0.44,1.61-1.03,2.81-1.62c2.67-1.3,4.93-1.79,6.35-2.08c1.51-0.32,3.55-0.62,6-0.65"/>
	<path class="st1" d="M80.34,381.37c0.58-0.42,1.42-0.98,2.48-1.53c2.35-1.23,4.34-1.7,5.58-1.98c1.33-0.3,3.12-0.6,5.27-0.64"/>
	<path class="st1" d="M109.01,391.89c0.72-0.04,1.72-0.05,2.91,0.05c2.64,0.23,4.57,0.92,5.77,1.35c1.28,0.47,2.95,1.19,4.77,2.31"
		/>
	<path class="st1" d="M109.69,395.12c0.68-0.02,1.63-0.02,2.75,0.1c2.5,0.27,4.33,0.94,5.47,1.37c1.22,0.46,2.81,1.16,4.55,2.25"/>
	<path class="st1" d="M109.69,397.88c0.69-0.01,1.66,0.01,2.81,0.14c2.55,0.3,4.43,1.01,5.6,1.46c1.25,0.48,2.88,1.21,4.67,2.33"/>
	<path class="st1" d="M109.69,401.03c0.68-0.02,1.64-0.01,2.77,0.11c2.51,0.28,4.36,0.96,5.5,1.39c1.23,0.46,2.83,1.18,4.58,2.27"/>
	<path class="st1" d="M109.81,404.79c0.68-0.04,1.64-0.07,2.76,0.02c2.51,0.2,4.33,0.83,5.46,1.24c1.21,0.43,2.79,1.11,4.51,2.17"/>
	<path class="st1" d="M89.4,404.06c0.02,0.68,0.01,1.64-0.12,2.76c-0.29,2.5-0.99,4.29-1.44,5.41c-0.48,1.2-1.21,2.75-2.33,4.43"/>
	<path class="st1" d="M92.31,409.86c-0.3,3.33-1.18,5.7-1.74,7.18"/>
	<path class="st1" d="M66.35,383.66c-0.85,2.29-2.03,3.83-2.81,4.71c-1.5,1.69-3.03,2.59-4.18,3.27c-1.47,0.86-2.79,1.37-3.75,1.69"
		/>
	<path class="st1" d="M68.71,384.46c-0.94,2.9-2.23,4.85-3.09,5.96c-1.65,2.14-3.33,3.28-4.59,4.14c-1.61,1.08-3.07,1.74-4.12,2.14"
		/>
	<path class="st1" d="M72.32,385.94c-0.85,2.29-3.17,5.93-6.36,9.41c-1.53,1.67-3.03,2.59-4.18,3.27c-1.47,0.86-2.79,1.37-3.75,1.69
		"/>
	<path class="st1" d="M74.52,387.11c-0.85,2.29-5.01,7.8-8.2,11.28c-1.53,1.67-2.88,3.86-4.04,4.52c-1.38,0.78-1.62,2.64-2.44,1.89"
		/>
	<path class="st1" d="M61.84,382.75c-0.58,1.36-1.39,2.28-1.93,2.8c-1.03,1-2.08,1.54-2.87,1.94c-1.01,0.51-1.92,0.82-2.58,1"/>
</g>
</svg>
