<?xml version="1.0" encoding="utf-8"?>
<!-- Generator: Adobe Illustrator 25.4.1, SVG Export Plug-In . SVG Version: 6.00 Build 0)  -->
<svg version="1.1" id="Capa_3" xmlns="http://www.w3.org/2000/svg" xmlns:xlink="http://www.w3.org/1999/xlink" x="0px" y="0px"
	 viewBox="0 0 244.02 374.23" style="enable-background:new 0 0 244.02 374.23;" xml:space="preserve">
<style type="text/css">
	.st0{fill-rule:evenodd;clip-rule:evenodd;fill:#FFFFFF;}
	.st1{fill-rule:evenodd;clip-rule:evenodd;fill:#FFFFFF;stroke:#FFFFFF;stroke-miterlimit:10;}
</style>
<g id="Capa_3">
	<g>
		<path class="st0" d="M25.59,193.84c0-55.3,1.5-110.7,0-166c-3-114.4,13.4,233.5,44,150c12.1-33.1,16.6,68.7,30,102
			c4.9,12.3,20.1,21.8,5,39c-10.9,12.4-20.5,64.3-14,48c16.2-40.5,2-87.6-18-128c-16.6-33.5-32.8-69.6-34-107
			c-1.1-32.9-38.5-23.8-32,6c3.1,14.1,6.1,53.2,28,24c15.6-20.7,27.9-45.5,29-73c0.2-5,9.9-91.1-8-13c-7.3,31.8-32,95.9,4,113
			c15.3,7.3,23.3-29.7,21-47c-4.9-36.4,19.3,14.2,13,20c-27.9,25.9,6.3-39.2,22-7c7.8,15.9,12.5-26.5,15-19
			c14.1,41.6,16.3-27.4,20-15c10.1,33.7,51.6,12.6,39-1c-20.4-22-47.4,66.9,14,2l31-11h2L25.59,193.84z"/>
	</g>
	<g>
		<path class="st1" d="M25.59,193.84c0-55.3,1.5-110.7,0-166c-3-114.4,13.4,233.5,44,150c12.1-33.1,16.6,68.7,30,102
			c4.9,12.3,20.1,21.8,5,39c-10.9,12.4-20.5,64.3-14,48c16.2-40.5,2-87.6-18-128c-16.6-33.5-32.8-69.6-34-107
			c-1.1-32.9-38.5-23.8-32,6c3.1,14.1,6.1,53.2,28,24c15.6-20.7,27.9-45.5,29-73c0.2-5,9.9-91.1-8-13c-7.3,31.8-32,95.9,4,113
			c15.3,7.3,23.3-29.7,21-47c-4.9-36.4,19.3,14.2,13,20c-27.9,25.9,6.3-39.2,22-7c7.8,15.9,12.5-26.5,15-19
			c14.1,41.6,16.3-27.4,20-15c10.1,33.7,51.6,12.6,39-1c-20.4-22-47.4,66.9,14,2l31-11h2L25.59,193.84z"/>
	</g>
</g>
</svg>
