<?xml version="1.0" encoding="utf-8"?>
<!-- Generator: Adobe Illustrator 25.4.1, SVG Export Plug-In . SVG Version: 6.00 Build 0)  -->
<svg version="1.1" id="Capa_1" xmlns="http://www.w3.org/2000/svg" xmlns:xlink="http://www.w3.org/1999/xlink" x="0px" y="0px"
	 viewBox="0 0 432 565.22" style="enable-background:new 0 0 432 565.22;" xml:space="preserve">
<style type="text/css">
	.st0{fill:none;stroke:#8B8B8C;stroke-width:0.75;stroke-miterlimit:10;}
	.st1{fill:#757575;}
</style>
<g>
	<line class="st0" x1="163.62" y1="322.06" x2="169.22" y2="265.04"/>
	<line class="st0" x1="171.7" y1="264.5" x2="214.6" y2="303.84"/>
	<line class="st0" x1="218.03" y1="302.98" x2="233.25" y2="271.08"/>
	<line class="st0" x1="171.57" y1="263.21" x2="232.58" y2="268.37"/>
	<line class="st0" x1="267.06" y1="322.53" x2="235.83" y2="271.55"/>
	<line class="st0" x1="271.31" y1="323.18" x2="319.15" y2="263.53"/>
	<line class="st0" x1="267.84" y1="270.11" x2="253.49" y2="179.79"/>
	<line class="st0" x1="318.58" y1="259.31" x2="254.83" y2="179.44"/>
	<line class="st0" x1="396.49" y1="309.49" x2="322.98" y2="261.79"/>
	<line class="st0" x1="339.21" y1="347.53" x2="320.9" y2="263.37"/>
	<line class="st0" x1="342.22" y1="347.71" x2="396.43" y2="311.28"/>
	<line class="st0" x1="412.17" y1="365.6" x2="398.91" y2="312.79"/>
	<line class="st0" x1="378.11" y1="412.33" x2="410.23" y2="369.59"/>
	<line class="st0" x1="341.78" y1="349.86" x2="409.26" y2="368.31"/>
	<line class="st0" x1="375.48" y1="411.41" x2="341.46" y2="352.67"/>
	<line class="st0" x1="391.15" y1="472.63" x2="376.49" y2="417.31"/>
	<line class="st0" x1="337.9" y1="443.86" x2="373.69" y2="416.16"/>
	<line class="st0" x1="336.07" y1="443.21" x2="332.16" y2="414.17"/>
	<line class="st0" x1="331.89" y1="409.4" x2="338.93" y2="353.15"/>
	<line class="st0" x1="346.55" y1="503.95" x2="311.82" y2="504.43"/>
	<line class="st0" x1="309.83" y1="502.48" x2="313.44" y2="476.49"/>
	<line class="st0" x1="252.32" y1="416.26" x2="245.21" y2="362.87"/>
	<line class="st0" x1="254.48" y1="417.31" x2="280.48" y2="360.4"/>
	<line class="st0" x1="255.13" y1="419.6" x2="287.89" y2="412.54"/>
	<line class="st0" x1="292.1" y1="410.87" x2="309.58" y2="382.05"/>
	<line class="st0" x1="330.25" y1="410.77" x2="312.25" y2="382.63"/>
	<line class="st0" x1="292.85" y1="414.17" x2="329.28" y2="413.35"/>
	<line class="st0" x1="291.56" y1="415.4" x2="332.95" y2="443.96"/>
	<line class="st0" x1="338.72" y1="446.31" x2="389.53" y2="472.96"/>
	<line class="st0" x1="315.05" y1="473.54" x2="387.7" y2="474.92"/>
	<line class="st0" x1="243.5" y1="357.94" x2="217.98" y2="308.24"/>
	<line class="st0" x1="245.86" y1="357.95" x2="267.51" y2="326.91"/>
	<line class="st0" x1="281.32" y1="356.55" x2="271.3" y2="327.64"/>
	<line class="st0" x1="284.11" y1="358.5" x2="337.58" y2="349.86"/>
	<line class="st0" x1="309.23" y1="378.75" x2="283.92" y2="361.37"/>
	<line class="st0" x1="288.75" y1="410.77" x2="282.11" y2="361.01"/>
	<line class="st0" x1="190.54" y1="420.81" x2="241.99" y2="362.87"/>
	<line class="st0" x1="210.5" y1="466.06" x2="188.73" y2="424.35"/>
	<line class="st0" x1="213.17" y1="466.82" x2="252.43" y2="420.74"/>
	<line class="st0" x1="266.26" y1="453.77" x2="253.83" y2="421.22"/>
	<line class="st0" x1="270.72" y1="454.78" x2="289.29" y2="414.75"/>
	<line class="st0" x1="271.51" y1="457.03" x2="311.63" y2="472.1"/>
	<line class="st0" x1="314.73" y1="472.1" x2="334.35" y2="446.87"/>
	<line class="st0" x1="82.56" y1="527.28" x2="155.86" y2="484.19"/>
	<line class="st0" x1="188.19" y1="522.22" x2="159.8" y2="487.72"/>
	<line class="st0" x1="191.43" y1="522.22" x2="210.9" y2="471.79"/>
	<line class="st0" x1="254.59" y1="497.64" x2="193.17" y2="524.34"/>
	<line class="st0" x1="214.17" y1="470.26" x2="254.59" y2="495.7"/>
	<line class="st0" x1="268.49" y1="458.41" x2="257.25" y2="494.57"/>
	<line class="st0" x1="312.14" y1="474.36" x2="259.01" y2="495.59"/>
	<line class="st0" x1="305.6" y1="504.27" x2="258.47" y2="498.4"/>
	<line class="st0" x1="266.26" y1="456.68" x2="215.31" y2="467.79"/>
	<line class="st0" x1="210.56" y1="470.37" x2="160.49" y2="481.8"/>
	<line class="st0" x1="186.57" y1="423.6" x2="158.13" y2="480.66"/>
	<line class="st0" x1="23" y1="553.34" x2="77.73" y2="530.78"/>
	<line class="st0" x1="185.89" y1="421.07" x2="89.6" y2="374.01"/>
	<line class="st0" x1="196.81" y1="370.02" x2="189.59" y2="418.83"/>
	<line class="st0" x1="158.13" y1="382.04" x2="186.26" y2="418.39"/>
	<line class="st0" x1="213.84" y1="307.5" x2="165.39" y2="324.79"/>
	<line class="st0" x1="164.48" y1="325.94" x2="194.55" y2="365.82"/>
	<line class="st0" x1="206.08" y1="336.18" x2="198.2" y2="365.17"/>
	<line class="st0" x1="208.78" y1="334.13" x2="241.98" y2="358.6"/>
	<line class="st0" x1="200.48" y1="368.08" x2="240.79" y2="360.4"/>
	<line class="st0" x1="160.04" y1="378.75" x2="195.31" y2="369.27"/>
	<line class="st0" x1="246.72" y1="360.19" x2="278.95" y2="360.19"/>
	<line class="st0" x1="237.66" y1="270" x2="266.11" y2="273.11"/>
	<line class="st0" x1="269.42" y1="322.28" x2="268.99" y2="276.79"/>
	<line class="st0" x1="271.94" y1="272.69" x2="318.07" y2="262.89"/>
	<line class="st0" x1="235.2" y1="266.66" x2="251.35" y2="179.78"/>
	<line class="st0" x1="194.3" y1="222.12" x2="250.48" y2="180.66"/>
	<line class="st0" x1="194.12" y1="225.92" x2="233.57" y2="267.09"/>
	<line class="st0" x1="171.05" y1="259.98" x2="191.1" y2="226.24"/>
	<line class="st0" x1="251.89" y1="174.61" x2="219.66" y2="107.75"/>
	<line class="st0" x1="220.2" y1="101.86" x2="236.59" y2="77.71"/>
	<line class="st0" x1="212.41" y1="42.4" x2="237.13" y2="72.54"/>
	<line class="st0" x1="147.86" y1="108.62" x2="208.78" y2="41.6"/>
	<line class="st0" x1="217.62" y1="105.41" x2="148.99" y2="110.08"/>
	<line class="st0" x1="250.11" y1="176.47" x2="149.07" y2="111.45"/>
	<line class="st0" x1="170.19" y1="185.17" x2="147.56" y2="112.1"/>
	<line class="st0" x1="174.28" y1="186.31" x2="250.38" y2="179.25"/>
	<line class="st0" x1="191.64" y1="222.21" x2="172.46" y2="189.05"/>
	<line class="st0" x1="158.87" y1="227.1" x2="169.98" y2="189.38"/>
	<line class="st0" x1="190.56" y1="224.84" x2="163.26" y2="230.71"/>
	<line class="st0" x1="137.21" y1="243.86" x2="156.83" y2="231.52"/>
	<line class="st0" x1="137.43" y1="248.44" x2="168.04" y2="261.16"/>
	<line class="st0" x1="107.03" y1="15.95" x2="207.19" y2="38.37"/>
	<line class="st0" x1="146.16" y1="107.53" x2="104.77" y2="19.4"/>
	<line class="st0" x1="88.17" y1="370.06" x2="168.04" y2="263.75"/>
	<line class="st0" x1="82.78" y1="530.95" x2="188.73" y2="524.8"/>
	<line class="st0" x1="89.6" y1="369.05" x2="160.7" y2="324.79"/>
	<line class="st0" x1="156.29" y1="380.12" x2="91.19" y2="372.41"/>
	<line class="st0" x1="251.88" y1="418.91" x2="189.81" y2="422.57"/>
	<line class="st0" x1="157.88" y1="376.71" x2="161.68" y2="326.8"/>
	<line class="st0" x1="335.53" y1="411.96" x2="373.15" y2="412.7"/>
	<line class="st0" x1="313.11" y1="378.43" x2="338.23" y2="349.86"/>
</g>
<g>
	<circle class="st1" cx="397.83" cy="310.27" r="4.77"/>
	<circle class="st1" cx="188.3" cy="421.7" r="4.77"/>
	<circle class="st1" cx="103.44" cy="15.45" r="4.77"/>
	<circle class="st1" cx="237.7" cy="75.34" r="4.77"/>
	<circle class="st1" cx="210.43" cy="40.26" r="4.77"/>
	<circle class="st1" cx="147.04" cy="109.13" r="4.77"/>
	<circle class="st1" cx="218.89" cy="104.85" r="4.77"/>
	<circle class="st1" cx="171.57" cy="187.24" r="4.77"/>
	<circle class="st1" cx="252.82" cy="177.85" r="4.77"/>
	<circle class="st1" cx="89.6" cy="372.41" r="4.77"/>
	<circle class="st1" cx="157.88" cy="380.12" r="4.77"/>
	<circle class="st1" cx="135.69" cy="246.51" r="4.77"/>
	<circle class="st1" cx="160.04" cy="230.07" r="4.77"/>
	<circle class="st1" cx="192.66" cy="223.96" r="4.77"/>
	<circle class="st1" cx="170.16" cy="261.89" r="4.77"/>
	<circle class="st1" cx="162.65" cy="324.79" r="4.77"/>
	<circle class="st1" cx="197.43" cy="367.64" r="4.77"/>
	<circle class="st1" cx="207.19" cy="333.44" r="4.77"/>
	<circle class="st1" cx="216.53" cy="306.22" r="4.77"/>
	<circle class="st1" cx="244.18" cy="360.4" r="4.77"/>
	<circle class="st1" cx="311.14" cy="380.12" r="4.77"/>
	<circle class="st1" cx="282.11" cy="359.32" r="4.77"/>
	<circle class="st1" cx="269.42" cy="324.79" r="4.77"/>
	<circle class="st1" cx="235.02" cy="268.43" r="4.77"/>
	<circle class="st1" cx="268.99" cy="273.28" r="4.77"/>
	<circle class="st1" cx="411.63" cy="368.31" r="4.77"/>
	<circle class="st1" cx="339.71" cy="349.86" r="4.77"/>
	<circle class="st1" cx="320.55" cy="261.79" r="4.77"/>
	<circle class="st1" cx="314.09" cy="473.54" r="4.77"/>
	<circle class="st1" cx="351.32" cy="503.95" r="4.77"/>
	<circle class="st1" cx="309.31" cy="503.95" r="4.77"/>
	<circle class="st1" cx="268.49" cy="455.97" r="4.77"/>
	<circle class="st1" cx="255.99" cy="496.2" r="4.77"/>
	<circle class="st1" cx="212.15" cy="468.76" r="4.77"/>
	<circle class="st1" cx="190.91" cy="524.06" r="4.77"/>
	<circle class="st1" cx="158.13" cy="484.19" r="4.77"/>
	<circle class="st1" cx="80.53" cy="529.62" r="4.77"/>
	<circle class="st1" cx="20.03" cy="554.57" r="4.77"/>
	<circle class="st1" cx="391.15" cy="474.83" r="4.77"/>
	<circle class="st1" cx="336.67" cy="444.95" r="4.77"/>
	<circle class="st1" cx="290.17" cy="412.54" r="4.77"/>
	<circle class="st1" cx="253.26" cy="418.83" r="4.77"/>
	<circle class="st1" cx="331.89" cy="412.54" r="4.77"/>
	<circle class="st1" cx="375.48" cy="414.17" r="4.77"/>
</g>
</svg>
