<?xml version="1.0" encoding="utf-8"?>
<!-- Generator: Adobe Illustrator 25.4.1, SVG Export Plug-In . SVG Version: 6.00 Build 0)  -->
<svg version="1.1" id="Capa_1" xmlns="http://www.w3.org/2000/svg" xmlns:xlink="http://www.w3.org/1999/xlink" x="0px" y="0px"
	 viewBox="0 0 470 700" style="enable-background:new 0 0 470 700;" xml:space="preserve">
<style type="text/css">
	.st0{fill:none;stroke:#8B8B8C;stroke-width:0.75;stroke-miterlimit:10;}
	.st1{fill:#757575;}
</style>
<g>
	<line class="st0" x1="190.46" y1="346.09" x2="196.14" y2="297.29"/>
	<line class="st0" x1="203.94" y1="297.29" x2="239.96" y2="328.09"/>
	<line class="st0" x1="248.07" y1="327.71" x2="258.54" y2="304.26"/>
	<line class="st0" x1="206.69" y1="294.06" x2="254.57" y2="297.29"/>
	<line class="st0" x1="292.87" y1="348.69" x2="266.47" y2="304.47"/>
	<line class="st0" x1="302.33" y1="348.35" x2="342.25" y2="295.68"/>
	<line class="st0" x1="294.13" y1="294.06" x2="282.23" y2="215.38"/>
	<line class="st0" x1="344.48" y1="286.35" x2="286.48" y2="213.67"/>
	<line class="st0" x1="424.3" y1="338.91" x2="355.18" y2="294.06"/>
	<line class="st0" x1="366.24" y1="373.38" x2="350.01" y2="298.77"/>
	<line class="st0" x1="371.41" y1="375.24" x2="422.54" y2="347.96"/>
	<line class="st0" x1="440.48" y1="389.61" x2="431.65" y2="347.74"/>
	<line class="st0" x1="407.35" y1="437.1" x2="436.43" y2="404.75"/>
	<line class="st0" x1="374.35" y1="383.74" x2="433.41" y2="393.75"/>
	<line class="st0" x1="396.98" y1="437.65" x2="369.12" y2="384.36"/>
	<line class="st0" x1="415.04" y1="497.02" x2="402.49" y2="451.71"/>
	<line class="st0" x1="369.24" y1="468.5" x2="396.23" y2="448.76"/>
	<line class="st0" x1="361.72" y1="466.06" x2="360.66" y2="448.76"/>
	<line class="st0" x1="358.12" y1="432.53" x2="366.24" y2="386.54"/>
	<line class="st0" x1="374.35" y1="533.37" x2="347.07" y2="533.37"/>
	<line class="st0" x1="338.95" y1="525.26" x2="341.89" y2="510.43"/>
	<line class="st0" x1="280.49" y1="440.64" x2="272.38" y2="397.73"/>
	<line class="st0" x1="286.75" y1="443.59" x2="305.85" y2="395.17"/>
	<line class="st0" x1="288.61" y1="448.76" x2="309.07" y2="443.59"/>
	<line class="st0" x1="322.36" y1="437.3" x2="334.94" y2="415.5"/>
	<line class="st0" x1="351.86" y1="435.48" x2="340.2" y2="415.14"/>
	<line class="st0" x1="325.3" y1="443.59" x2="350.01" y2="443.59"/>
	<line class="st0" x1="322.11" y1="450.04" x2="358.02" y2="473.04"/>
	<line class="st0" x1="370.5" y1="477.75" x2="412.43" y2="499.11"/>
	<line class="st0" x1="350.01" y1="504.24" x2="410.61" y2="504.24"/>
	<line class="st0" x1="269.28" y1="383.41" x2="248.07" y2="342.11"/>
	<line class="st0" x1="274.97" y1="383.41" x2="292.13" y2="360.9"/>
	<line class="st0" x1="309.07" y1="381.5" x2="300.96" y2="361.6"/>
	<line class="st0" x1="317.19" y1="387.22" x2="360.71" y2="381.5"/>
	<line class="st0" x1="333.78" y1="408.24" x2="316.05" y2="393.75"/>
	<line class="st0" x1="314.19" y1="436.06" x2="309.07" y2="397.73"/>
	<line class="st0" x1="221.95" y1="446.18" x2="266.88" y2="395.57"/>
	<line class="st0" x1="236.12" y1="493.77" x2="219.99" y2="459.08"/>
	<line class="st0" x1="244.34" y1="492.29" x2="276.43" y2="453.8"/>
	<line class="st0" x1="294.13" y1="478.18" x2="282.88" y2="454.45"/>
	<line class="st0" x1="300.96" y1="478.96" x2="315.62" y2="448.76"/>
	<line class="st0" x1="305.02" y1="488.43" x2="335.61" y2="499.11"/>
	<line class="st0" x1="345.37" y1="496.92" x2="360.71" y2="478.81"/>
	<line class="st0" x1="115.7" y1="554.19" x2="179.83" y2="517.14"/>
	<line class="st0" x1="213.07" y1="546.89" x2="187.61" y2="517.14"/>
	<line class="st0" x1="219.89" y1="546.77" x2="237.36" y2="504.48"/>
	<line class="st0" x1="280.49" y1="529.54" x2="224.48" y2="552.24"/>
	<line class="st0" x1="246.48" y1="503.41" x2="279.03" y2="520.48"/>
	<line class="st0" x1="296.72" y1="493.98" x2="286.94" y2="517.93"/>
	<line class="st0" x1="334.35" y1="507.23" x2="291.45" y2="523.79"/>
	<line class="st0" x1="330.84" y1="533.37" x2="290.38" y2="529.51"/>
	<line class="st0" x1="288.61" y1="485.87" x2="248.07" y2="496.13"/>
	<line class="st0" x1="232.84" y1="500.81" x2="193.3" y2="508.14"/>
	<line class="st0" x1="213.07" y1="457.41" x2="189.02" y2="507.23"/>
	<line class="st0" x1="50.81" y1="582.76" x2="103.32" y2="561.11"/>
	<line class="st0" x1="210.08" y1="448.76" x2="122.82" y2="407.14"/>
	<line class="st0" x1="224.72" y1="405.84" x2="219.99" y2="444.34"/>
	<line class="st0" x1="188.82" y1="416.89" x2="211.88" y2="445.12"/>
	<line class="st0" x1="237.01" y1="338.37" x2="196.14" y2="351.14"/>
	<line class="st0" x1="193.8" y1="361.6" x2="219.99" y2="391.14"/>
	<line class="st0" x1="232.84" y1="372.63" x2="227.41" y2="390.08"/>
	<line class="st0" x1="241.8" y1="370.38" x2="266.19" y2="384.36"/>
	<line class="st0" x1="232.84" y1="397.73" x2="266.55" y2="389.61"/>
	<line class="st0" x1="193.98" y1="407.14" x2="217.75" y2="401.86"/>
	<line class="st0" x1="280.49" y1="389.61" x2="300.96" y2="389.61"/>
	<line class="st0" x1="270.54" y1="299.33" x2="290.73" y2="302.18"/>
	<line class="st0" x1="296.72" y1="346.54" x2="295.79" y2="310.23"/>
	<line class="st0" x1="304.84" y1="302.18" x2="339.48" y2="294.06"/>
	<line class="st0" x1="264.26" y1="289.33" x2="276.7" y2="215.38"/>
	<line class="st0" x1="226.38" y1="248.38" x2="275.36" y2="212.24"/>
	<line class="st0" x1="224.72" y1="259.96" x2="259.13" y2="291.22"/>
	<line class="st0" x1="201.72" y1="285.96" x2="216.57" y2="258.93"/>
	<line class="st0" x1="276.78" y1="201" x2="247.74" y2="142.22"/>
	<line class="st0" x1="248.54" y1="127.93" x2="262.26" y2="109.19"/>
	<line class="st0" x1="240.22" y1="71.81" x2="262.69" y2="96.08"/>
	<line class="st0" x1="180.1" y1="133.16" x2="230.12" y2="72.23"/>
	<line class="st0" x1="236.22" y1="134.86" x2="182.64" y2="139.05"/>
	<line class="st0" x1="273.99" y1="203.36" x2="181.62" y2="142.98"/>
	<line class="st0" x1="195.25" y1="209.73" x2="175.97" y2="147.03"/>
	<line class="st0" x1="206.69" y1="215.38" x2="275.36" y2="210.15"/>
	<line class="st0" x1="215.14" y1="246.88" x2="201.69" y2="222.88"/>
	<line class="st0" x1="185.23" y1="254.72" x2="194.49" y2="222.39"/>
	<line class="st0" x1="211.88" y1="254.72" x2="193.3" y2="259.65"/>
	<line class="st0" x1="168.9" y1="270.83" x2="180.8" y2="264.18"/>
	<line class="st0" x1="168.31" y1="280" x2="190.73" y2="289.18"/>
	<line class="st0" x1="137.58" y1="43.14" x2="231.34" y2="63.41"/>
	<line class="st0" x1="170.2" y1="132.19" x2="131.43" y2="51"/>
	<line class="st0" x1="116.67" y1="393.75" x2="193.21" y2="297.29"/>
	<line class="st0" x1="115.44" y1="562.3" x2="210.43" y2="554.19"/>
	<line class="st0" x1="123.64" y1="397.73" x2="185.23" y2="357.15"/>
	<line class="st0" x1="178.26" y1="409.98" x2="121.87" y2="404.2"/>
	<line class="st0" x1="272.38" y1="448.76" x2="222.36" y2="451.71"/>
	<line class="st0" x1="185.23" y1="404.5" x2="190.46" y2="362.32"/>
	<line class="st0" x1="366.24" y1="440.64" x2="396.98" y2="443.59"/>
	<line class="st0" x1="344.93" y1="404.5" x2="363.3" y2="385.83"/>
</g>
<g>
	<circle class="st1" cx="129.46" cy="43.14" r="8.12"/>
	<circle class="st1" cx="296.72" cy="354.21" r="8.12"/>
	<circle class="st1" cx="116.67" cy="401.86" r="8.12"/>
	<circle class="st1" cx="190.46" cy="354.21" r="8.12"/>
	<circle class="st1" cx="244.34" cy="334.91" r="8.12"/>
	<circle class="st1" cx="296.72" cy="302.18" r="8.12"/>
	<circle class="st1" cx="347.07" cy="291.22" r="8.12"/>
	<circle class="st1" cx="198.58" cy="291.22" r="8.12"/>
	<circle class="st1" cx="262.69" cy="297.29" r="8.12"/>
	<circle class="st1" cx="161.94" cy="274.99" r="8.12"/>
	<circle class="st1" cx="186.38" cy="261.49" r="8.12"/>
	<circle class="st1" cx="219.99" cy="253.38" r="8.12"/>
	<circle class="st1" cx="280.49" cy="208.21" r="8.12"/>
	<circle class="st1" cx="198.58" cy="215.38" r="8.12"/>
	<circle class="st1" cx="244.34" cy="134.86" r="8.12"/>
	<circle class="st1" cx="267.25" cy="102.79" r="8.12"/>
	<circle class="st1" cx="174.53" cy="139.05" r="8.12"/>
	<circle class="st1" cx="236.22" cy="66.89" r="8.12"/>
	<circle class="st1" cx="338.95" cy="409.98" r="8.12"/>
	<circle class="st1" cx="309.07" cy="389.61" r="8.12"/>
	<circle class="st1" cx="272.38" cy="389.61" r="8.12"/>
	<circle class="st1" cx="186.38" cy="409.98" r="8.12"/>
	<circle class="st1" cx="224.72" cy="397.73" r="8.12"/>
	<circle class="st1" cx="440.48" cy="397.73" r="8.12"/>
	<circle class="st1" cx="366.24" cy="381.5" r="8.12"/>
	<circle class="st1" cx="236.22" cy="365.26" r="8.12"/>
	<circle class="st1" cx="428.98" cy="343.03" r="8.12"/>
	<circle class="st1" cx="296.72" cy="485.87" r="8.12"/>
	<circle class="st1" cx="239.96" cy="499.11" r="8.12"/>
	<circle class="st1" cx="186.38" cy="512.36" r="8.12"/>
	<circle class="st1" cx="402.49" cy="443.59" r="8.12"/>
	<circle class="st1" cx="358.12" cy="440.64" r="8.12"/>
	<circle class="st1" cx="317.19" cy="443.59" r="8.12"/>
	<circle class="st1" cx="280.49" cy="448.76" r="8.12"/>
	<circle class="st1" cx="216.61" cy="451.71" r="8.12"/>
	<circle class="st1" cx="338.95" cy="533.37" r="8.12"/>
	<circle class="st1" cx="283.48" cy="525.26" r="8.12"/>
	<circle class="st1" cx="341.89" cy="504.24" r="8.12"/>
	<circle class="st1" cx="363.3" cy="474.02" r="8.12"/>
	<circle class="st1" cx="108.55" cy="558.02" r="8.12"/>
	<circle class="st1" cx="216.61" cy="554.19" r="8.12"/>
	<circle class="st1" cx="45.21" cy="584.86" r="8.12"/>
	<circle class="st1" cx="382.47" cy="533.37" r="8.12"/>
	<circle class="st1" cx="418.72" cy="504.24" r="8.12"/>
</g>
</svg>
